<mxfile host="app.diagrams.net" modified="2023-10-21T02:55:57.584Z" agent="Mozilla/5.0 (Windows NT 10.0; Win64; x64) AppleWebKit/537.36 (KHTML, like Gecko) Chrome/118.0.0.0 Safari/537.36" etag="BDSEZ4_l9Lzk0QsCn3Hc" version="22.0.6" type="device">
  <diagram name="PÃ¡gina-1" id="eGCHBFjvZvjVlzmTKEGn">
    <mxGraphModel dx="941" dy="857" grid="1" gridSize="10" guides="1" tooltips="1" connect="1" arrows="1" fold="1" page="1" pageScale="1" pageWidth="827" pageHeight="1169" math="0" shadow="0">
      <root>
        <mxCell id="0" />
        <mxCell id="1" parent="0" />
        <mxCell id="LKfnSEbE0rGgdoUh7k1c-1" value="" style="rounded=0;whiteSpace=wrap;html=1;" vertex="1" parent="1">
          <mxGeometry x="79" y="60" width="670" height="1070" as="geometry" />
        </mxCell>
        <mxCell id="LKfnSEbE0rGgdoUh7k1c-3" value="" style="rounded=0;whiteSpace=wrap;html=1;" vertex="1" parent="1">
          <mxGeometry x="90" y="70" width="650" height="120" as="geometry" />
        </mxCell>
        <mxCell id="LKfnSEbE0rGgdoUh7k1c-2" value="LOGO" style="rounded=0;whiteSpace=wrap;html=1;" vertex="1" parent="1">
          <mxGeometry x="100" y="90" width="70" height="60" as="geometry" />
        </mxCell>
        <mxCell id="LKfnSEbE0rGgdoUh7k1c-4" value="Novedades \ Articulos \ Articulos \ Contacto" style="rounded=0;whiteSpace=wrap;html=1;" vertex="1" parent="1">
          <mxGeometry x="100" y="160" width="360" height="20" as="geometry" />
        </mxCell>
        <mxCell id="LKfnSEbE0rGgdoUh7k1c-6" value="" style="rounded=0;whiteSpace=wrap;html=1;" vertex="1" parent="1">
          <mxGeometry x="89" y="200" width="650" height="190" as="geometry" />
        </mxCell>
        <mxCell id="LKfnSEbE0rGgdoUh7k1c-8" value="" style="whiteSpace=wrap;html=1;aspect=fixed;" vertex="1" parent="1">
          <mxGeometry x="100" y="220" width="150" height="150" as="geometry" />
        </mxCell>
        <mxCell id="LKfnSEbE0rGgdoUh7k1c-9" value="" style="whiteSpace=wrap;html=1;aspect=fixed;" vertex="1" parent="1">
          <mxGeometry x="270" y="220" width="150" height="150" as="geometry" />
        </mxCell>
        <mxCell id="LKfnSEbE0rGgdoUh7k1c-11" value="" style="whiteSpace=wrap;html=1;aspect=fixed;" vertex="1" parent="1">
          <mxGeometry x="440" y="220" width="150" height="150" as="geometry" />
        </mxCell>
        <mxCell id="LKfnSEbE0rGgdoUh7k1c-7" value="&lt;font style=&quot;font-size: 23px;&quot;&gt;Novedades&lt;/font&gt;" style="text;html=1;align=center;verticalAlign=middle;whiteSpace=wrap;rounded=0;" vertex="1" parent="1">
          <mxGeometry x="370" y="260" width="110" height="60" as="geometry" />
        </mxCell>
        <mxCell id="LKfnSEbE0rGgdoUh7k1c-13" value="" style="rounded=0;whiteSpace=wrap;html=1;" vertex="1" parent="1">
          <mxGeometry x="600" y="220" width="130" height="150" as="geometry" />
        </mxCell>
        <mxCell id="LKfnSEbE0rGgdoUh7k1c-16" value="" style="whiteSpace=wrap;html=1;aspect=fixed;" vertex="1" parent="1">
          <mxGeometry x="100" y="410" width="150" height="150" as="geometry" />
        </mxCell>
        <mxCell id="LKfnSEbE0rGgdoUh7k1c-17" value="" style="whiteSpace=wrap;html=1;aspect=fixed;" vertex="1" parent="1">
          <mxGeometry x="317.5" y="410" width="150" height="150" as="geometry" />
        </mxCell>
        <mxCell id="LKfnSEbE0rGgdoUh7k1c-18" value="" style="whiteSpace=wrap;html=1;aspect=fixed;" vertex="1" parent="1">
          <mxGeometry x="540" y="410" width="150" height="150" as="geometry" />
        </mxCell>
        <mxCell id="LKfnSEbE0rGgdoUh7k1c-19" value="&lt;h1&gt;Articulo1&lt;/h1&gt;&lt;p&gt;Lorem ipsum dolor sit amet, consectetur adipisicing elit, sed do eiusmod tempor incididunt ut labore et dolore magna aliqua.&lt;/p&gt;" style="text;html=1;strokeColor=none;fillColor=none;spacing=5;spacingTop=-20;whiteSpace=wrap;overflow=hidden;rounded=0;" vertex="1" parent="1">
          <mxGeometry x="100" y="570" width="190" height="120" as="geometry" />
        </mxCell>
        <mxCell id="LKfnSEbE0rGgdoUh7k1c-20" value="&lt;h1&gt;Articulo2&lt;/h1&gt;&lt;p&gt;Lorem ipsum dolor sit amet, consectetur adipisicing elit, sed do eiusmod tempor incididunt ut labore et dolore magna aliqua.&lt;/p&gt;" style="text;html=1;strokeColor=none;fillColor=none;spacing=5;spacingTop=-20;whiteSpace=wrap;overflow=hidden;rounded=0;" vertex="1" parent="1">
          <mxGeometry x="330" y="570" width="190" height="120" as="geometry" />
        </mxCell>
        <mxCell id="LKfnSEbE0rGgdoUh7k1c-21" value="&lt;h1&gt;Articulo3&lt;/h1&gt;&lt;p&gt;Lorem ipsum dolor sit amet, consectetur adipisicing elit, sed do eiusmod tempor incididunt ut labore et dolore magna aliqua.&lt;/p&gt;" style="text;html=1;strokeColor=none;fillColor=none;spacing=5;spacingTop=-20;whiteSpace=wrap;overflow=hidden;rounded=0;" vertex="1" parent="1">
          <mxGeometry x="540" y="570" width="190" height="120" as="geometry" />
        </mxCell>
        <mxCell id="LKfnSEbE0rGgdoUh7k1c-23" value="" style="whiteSpace=wrap;html=1;aspect=fixed;" vertex="1" parent="1">
          <mxGeometry x="100" y="700" width="150" height="150" as="geometry" />
        </mxCell>
        <mxCell id="LKfnSEbE0rGgdoUh7k1c-24" value="" style="whiteSpace=wrap;html=1;aspect=fixed;" vertex="1" parent="1">
          <mxGeometry x="317.5" y="700" width="150" height="150" as="geometry" />
        </mxCell>
        <mxCell id="LKfnSEbE0rGgdoUh7k1c-25" value="" style="whiteSpace=wrap;html=1;aspect=fixed;" vertex="1" parent="1">
          <mxGeometry x="540" y="700" width="150" height="150" as="geometry" />
        </mxCell>
        <mxCell id="LKfnSEbE0rGgdoUh7k1c-27" value="&lt;font style=&quot;font-size: 22px;&quot;&gt;Contacto&lt;/font&gt;" style="rounded=0;whiteSpace=wrap;html=1;" vertex="1" parent="1">
          <mxGeometry x="79" y="1010" width="671" height="120" as="geometry" />
        </mxCell>
        <mxCell id="LKfnSEbE0rGgdoUh7k1c-29" value="&lt;h1&gt;Heading&lt;/h1&gt;&lt;p&gt;Lorem ipsum dolor sit amet, consectetur adipisicing elit, sed do eiusmod tempor incididunt ut labore et dolore magna aliqua.&lt;/p&gt;" style="text;html=1;strokeColor=none;fillColor=none;spacing=5;spacingTop=-20;whiteSpace=wrap;overflow=hidden;rounded=0;" vertex="1" parent="1">
          <mxGeometry x="100" y="870" width="190" height="120" as="geometry" />
        </mxCell>
        <mxCell id="LKfnSEbE0rGgdoUh7k1c-30" value="&lt;h1&gt;Heading&lt;/h1&gt;&lt;p&gt;Lorem ipsum dolor sit amet, consectetur adipisicing elit, sed do eiusmod tempor incididunt ut labore et dolore magna aliqua.&lt;/p&gt;" style="text;html=1;strokeColor=none;fillColor=none;spacing=5;spacingTop=-20;whiteSpace=wrap;overflow=hidden;rounded=0;" vertex="1" parent="1">
          <mxGeometry x="320" y="870" width="190" height="120" as="geometry" />
        </mxCell>
        <mxCell id="LKfnSEbE0rGgdoUh7k1c-31" value="&lt;h1&gt;Heading&lt;/h1&gt;&lt;p&gt;Lorem ipsum dolor sit amet, consectetur adipisicing elit, sed do eiusmod tempor incididunt ut labore et dolore magna aliqua.&lt;/p&gt;" style="text;html=1;strokeColor=none;fillColor=none;spacing=5;spacingTop=-20;whiteSpace=wrap;overflow=hidden;rounded=0;" vertex="1" parent="1">
          <mxGeometry x="540" y="870" width="190" height="120" as="geometry" />
        </mxCell>
        <mxCell id="LKfnSEbE0rGgdoUh7k1c-35" value="" style="html=1;shadow=0;dashed=0;align=center;verticalAlign=middle;shape=mxgraph.arrows2.arrow;dy=0.6;dx=40;notch=0;" vertex="1" parent="1">
          <mxGeometry x="615" y="260" width="100" height="70" as="geometry" />
        </mxCell>
        <mxCell id="LKfnSEbE0rGgdoUh7k1c-37" value="" style="html=1;shadow=0;dashed=0;align=center;verticalAlign=middle;shape=mxgraph.arrows2.arrow;dy=0.6;dx=40;notch=0;" vertex="1" parent="1">
          <mxGeometry x="125" y="260" width="100" height="70" as="geometry" />
        </mxCell>
      </root>
    </mxGraphModel>
  </diagram>
</mxfile>
